<svg width="17" height="17" viewBox="0 0 17 17" fill="none" xmlns="http://www.w3.org/2000/svg">
<path d="M12 1L2.5 10.5L4.5 12.5L6.5 14.5L16 5L12 1Z" fill="black"/>
<path d="M5 16L1 12V16H5Z" fill="black"/>
<path d="M2.5 10.5L2.14645 10.1464L1.79289 10.5L2.14645 10.8536L2.5 10.5ZM12 1L12.3536 0.646447C12.1583 0.451184 11.8417 0.451184 11.6464 0.646447L12 1ZM16 5L16.3536 5.35355C16.5488 5.15829 16.5488 4.84171 16.3536 4.64645L16 5ZM6.5 14.5L6.14645 14.8536L6.5 15.2071L6.85355 14.8536L6.5 14.5ZM1 12L1.35355 11.6464C1.21055 11.5034 0.995495 11.4607 0.808658 11.5381C0.621821 11.6155 0.5 11.7978 0.5 12H1ZM5 16V16.5C5.20223 16.5 5.38455 16.3782 5.46194 16.1913C5.53933 16.0045 5.49655 15.7894 5.35355 15.6464L5 16ZM1 16H0.5V16.5H1V16ZM2.85355 10.8536L12.3536 1.35355L11.6464 0.646447L2.14645 10.1464L2.85355 10.8536ZM11.6464 1.35355L15.6464 5.35355L16.3536 4.64645L12.3536 0.646447L11.6464 1.35355ZM15.6464 4.64645L6.14645 14.1464L6.85355 14.8536L16.3536 5.35355L15.6464 4.64645ZM6.85355 14.1464L4.85355 12.1464L4.14645 12.8536L6.14645 14.8536L6.85355 14.1464ZM4.85355 12.1464L2.85355 10.1464L2.14645 10.8536L4.14645 12.8536L4.85355 12.1464ZM0.646447 12.3536L4.64645 16.3536L5.35355 15.6464L1.35355 11.6464L0.646447 12.3536ZM1.5 16V12H0.5V16H1.5ZM5 15.5H1V16.5H5V15.5Z" fill="black"/>
</svg>
