<svg version="1" xmlns="http://www.w3.org/2000/svg" width="400" height="400" viewBox="0 0 300.000000 300.000000"><path d="M16.4 54.2c.3 1.3 16.7 45.3 36.4 97.8l35.9 95.5h48.6l6.6-17.6 6.6-17.6 6.6 17.6 6.6 17.6h48.6l5.8-15.4 5.8-15.4-11.2-29.8c-6.2-16.5-11.6-29.9-12.2-30-.5 0-3.4 6.5-6.4 14.5-3 8-5.7 14.6-6.1 14.6-.4 0-3.5-7.7-7-17l-6.3-17h-48.4l-6.9 17.1c-5.1 12.6-7.1 16.6-7.6 15.2-.5-1-11.8-31.1-25.1-66.8l-24.4-65-23.3-.3-23.2-.2.6 2.2z"/><path d="M87.9 54.7c-.6 1.6-3.3 8.6-5.9 15.7l-4.9 12.9 11.6 30.9c6.4 17 11.9 30.5 12.3 30.1.4-.4 3.1-7.4 6.1-15.5 3-8.1 5.7-14.8 6-14.8.3 0 3.4 7.6 6.9 17l6.3 17h48.4l6.3-17c3.5-9.4 6.6-17 7-17 .3 0 11.9 30 25.7 66.7l25 66.8 23.3.3 23.2.2-.6-2.2c-.3-1.3-16.7-45.3-36.4-97.8l-35.9-95.5h-48.6l-6.6 17.6-6.6 17.6-6.6-17.6-6.6-17.6-24.2-.3L89 52l-1.1 2.7zM237.9 54.7c-.6 1.6-3.3 8.6-5.9 15.7l-4.9 12.9 11.2 29.8c6.2 16.5 11.6 30 12.1 30.1.8.3 32.4-81.9 34.2-89l.6-2.2H239l-1.1 2.7zM49 158.6c-7.5 19.4-33 87.9-33 88.6 0 .4 10.4.7 23.1.6l23.2-.3 5.8-15.4 5.8-15.4-11.1-29.6c-6.1-16.3-11.4-30-11.9-30.5s-1.3.3-1.9 2z"/></svg>
