<svg width="16" height="16" viewBox="0 0 16 16" fill="none" xmlns="http://www.w3.org/2000/svg">
<path fill-rule="evenodd" clip-rule="evenodd" d="M6.23357 9.36585C8.14475 9.36585 9.6737 7.80488 9.6737 5.85366C9.6737 3.90244 8.14475 2.34146 6.23357 2.34146C4.32238 2.34146 2.79343 3.90244 2.79343 5.85366C2.79343 7.80488 4.32238 9.36585 6.23357 9.36585ZM6.23357 11.7073C9.29147 11.7073 11.9671 8.97561 11.9671 5.85366C11.9671 2.73171 9.29147 0 6.23357 0C3.17566 0 0.5 2.73171 0.5 5.85366C0.5 8.97561 3.17566 11.7073 6.23357 11.7073Z" fill="black"/>
<path d="M7.76252 9.36585L9.3832 7.71122L15.5 14.3454L13.8783 16L7.76252 9.36585Z" fill="black"/>
</svg>
